<mxfile host="app.diagrams.net" modified="2023-09-05T07:59:20.173Z" agent="Mozilla/5.0 (Windows NT 10.0; Win64; x64) AppleWebKit/537.36 (KHTML, like Gecko) Chrome/116.0.0.0 Safari/537.36" version="21.6.6" etag="zvv24-B3uI4eCy8MYBu4" type="github">
  <diagram name="Page-1" id="71Q_tvMnFhGlFTuYgTDa">
    <mxGraphModel>
      <root>
        <mxCell id="0" />
        <mxCell id="1" parent="0" />
      </root>
    </mxGraphModel>
  </diagram>
</mxfile>
